<svg width="40" height="40" viewBox="0 0 40 40" fill="none" xmlns="http://www.w3.org/2000/svg">
<path d="M20 3.33333C29.19 3.33333 36.6667 10.81 36.6667 20C36.6667 29.19 29.19 36.6667 20 36.6667C10.81 36.6667 3.33333 29.19 3.33333 20C3.33333 10.81 10.81 3.33333 20 3.33333ZM20 0C8.955 0 0 8.955 0 20C0 31.045 8.955 40 20 40C31.045 40 40 31.045 40 20C40 8.955 31.045 0 20 0ZM20 10C14.4783 10 10 14.4767 10 20C10 24.4183 12.865 28.1667 16.84 29.4883C17.34 29.5817 17.5 29.2717 17.5 29.0067V27.145C14.7183 27.75 14.1383 25.9667 14.1383 25.9667C13.685 24.8117 13.0283 24.5033 13.0283 24.5033C12.1217 23.8817 13.0967 23.895 13.0967 23.895C14.1017 23.965 14.63 24.9267 14.63 24.9267C15.5217 26.455 16.9683 26.0133 17.54 25.7583C17.63 25.1117 17.8883 24.6717 18.175 24.4217C15.9533 24.1683 13.62 23.31 13.62 19.48C13.62 18.3883 14.01 17.4967 14.65 16.7967C14.5467 16.5417 14.2033 15.5233 14.7467 14.1467C14.7467 14.1467 15.5867 13.8783 17.4967 15.1717C18.295 14.95 19.15 14.84 20 14.835C20.85 14.8383 21.705 14.95 22.505 15.1717C24.415 13.8783 25.2517 14.1467 25.2517 14.1467C25.7967 15.5233 25.4533 16.5417 25.3517 16.7933C25.9933 17.4933 26.38 18.385 26.38 19.4767C26.38 23.3183 24.04 24.1633 21.8133 24.41C22.1733 24.72 22.5 25.3283 22.5 26.2617V29.005C22.5 29.2717 22.66 29.5833 23.1667 29.485C27.1383 28.1633 30 24.4167 30 20C30 14.4767 25.5217 10 20 10Z" fill="#68FFE2"/>
</svg>
